<?xml version="1.0" encoding="UTF-8"?>
<svg id="a" xmlns="http://www.w3.org/2000/svg" viewBox="0 0 257.98 436.46">
  <path fill="#fff" id="b" d="M212.5,45.75l-10.72-25.21c-5.7,18.39-4.83,30.25-3.32,40.97,2.65,18.82,7.75,25.48,5.89,44.16-1.91,19.15-8.4,22.41-9.83,41-1.34,17.48,5.75,19.94,9.46,41.79,5.23,30.78-6.55,39.45-3.94,71.76,1.91,23.67,11.21,25.08,11.62,46.52,.35,18.41-4.62,29.92-9.25,43.37-10.39,30.15-13.46,34.45-7.89,85.16h-15.92c-5.58-50.72-2.5-55.02,7.89-85.16,4.63-13.45,9.6-24.96,9.25-43.37-.4-21.44-9.71-22.85-11.62-46.52-2.61-32.31,9.17-40.98,3.94-71.76-3.71-21.85-10.8-24.31-9.46-41.79,1.43-18.6,7.92-21.85,9.83-41,1.86-18.68-3.24-25.34-5.89-44.16-1.96-13.97-1.46-34.55,11.04-61.51l16.06,.14,6.64,25.39L237.97,.14l17.83-.14c-12.5,26.96-13,47.53-11.04,61.51,2.65,18.82,7.75,25.48,5.89,44.16-1.91,19.15-8.4,22.41-9.83,41-1.34,17.48,5.75,19.94,9.46,41.79,5.23,30.78-6.55,39.45-3.94,71.76,1.91,23.67,11.21,25.08,11.62,46.52,.35,18.41-4.62,29.92-9.25,43.37-10.39,30.15-13.46,34.45-7.89,85.16h-15.92c-5.58-50.72-2.5-55.02,7.89-85.16,4.63-13.45,9.6-24.96,9.25-43.37-.4-21.44-9.71-22.85-11.62-46.52-2.61-32.31,9.17-40.98,3.94-71.76-3.71-21.85-10.8-24.31-9.46-41.79,1.43-18.6,7.92-21.85,9.83-41,1.86-18.68-3.24-25.34-5.89-44.16-1.44-10.25-2.76-19.71,2.22-36.98l-18.57,21.22h.01Z"/>
  <path fill="#fff" id="c" d="M33.86,.01c15,3.52,24.52,18.4,21.33,33.57-3.18,15.12-18.09,24.85-33.2,22.11l.02,.5c.15,1.87,.35,3.65,.59,5.33,2.65,18.82,7.75,25.48,5.89,44.16-1.91,19.15-8.4,22.41-9.83,41-1.34,17.48,5.75,19.94,9.46,41.79,5.23,30.78-6.55,39.45-3.94,71.76,1.91,23.67,11.21,25.08,11.62,46.52,.35,18.41-4.62,29.92-9.25,43.37-10.39,30.15-13.46,34.45-7.89,85.16H2.74c-5.58-50.72-2.5-55.02,7.89-85.16,4.63-13.45,9.6-24.96,9.25-43.37-.4-21.44-9.71-22.85-11.62-46.52-2.61-32.31,9.17-40.98,3.94-71.76-3.71-21.85-10.8-24.31-9.46-41.79,1.43-18.6,7.92-21.85,9.83-41,1.86-18.68-3.24-25.34-5.89-44.16C4.72,47.55,5.22,26.97,17.72,0h16.14Zm-11.97,40.64c1.92,.88,4.14,1.46,6.39,1.46,8.42,0,15.25-6.83,15.25-15.25s-6.63-15.09-14.94-15.23l-.06,.16c-3.93,10.83-5.89,20.45-6.65,28.86h0Z"/>
  <path fill="#fff" id="d" d="M153.72,412.84c0,13.04-10.68,23.62-23.86,23.62s-23.86-10.57-23.86-23.62v-.26c-.45-27.53,4.07-47.13,9.36-62.46,4.63-13.45,9.6-24.96,9.25-43.37-.4-21.44-9.71-22.85-11.62-46.52-2.61-32.31,9.17-40.98,3.94-71.76-3.71-21.85-10.8-24.31-9.46-41.79,1.43-18.6,7.92-21.85,9.83-41,1.86-18.68-3.24-25.34-5.89-44.16-1.96-13.97-1.46-34.55,11.04-61.51h15.92c-12.5,26.96-13,47.53-11.04,61.51,2.65,18.82,7.75,25.48,5.89,44.16-1.91,19.15-8.4,22.41-9.83,41-1.34,17.48,5.75,19.94,9.46,41.79,5.23,30.78-6.55,39.45-3.94,71.76,1.91,23.67,11.21,25.08,11.62,46.52,.35,18.41-4.62,29.92-9.25,43.37-5.26,15.25-9.73,34.96-9.34,62.26l.03,.46c0,4.34,3.55,7.85,7.93,7.85s7.93-3.52,7.93-7.85l.02-.85c-.34-27.1,4.11-46.69,9.34-61.87,4.63-13.45,9.6-24.96,9.25-43.37-.4-21.44-9.71-22.85-11.62-46.52-2.61-32.31,9.17-40.98,3.94-71.76-3.71-21.85-10.8-24.31-9.46-41.79,1.43-18.6,7.92-21.85,9.83-41,1.86-18.68-3.24-25.34-5.89-44.16-1.96-13.97-1.46-34.55,11.04-61.51h15.92c-12.5,26.96-13,47.53-11.04,61.51,2.65,18.82,7.75,25.48,5.89,44.16-1.91,19.15-8.4,22.41-9.83,41-1.34,17.48,5.75,19.94,9.46,41.79,5.23,30.78-6.55,39.45-3.94,71.76,1.91,23.67,11.21,25.08,11.62,46.52,.35,18.41-4.62,29.92-9.25,43.37-5.28,15.33-9.86,34.45-9.41,61.99v.73h.02Z"/>
  <path fill="#fff" id="e" d="M77.51,435.28h16.17v-16.17h-16.14c-1.95-44.35-1.02-39.51,9.14-68.99,4.63-13.45,9.6-24.96,9.25-43.37-.4-21.44-9.71-22.85-11.62-46.52-2.61-32.31,9.17-40.98,3.94-71.76-3.71-21.85-10.8-24.31-9.46-41.79,1.43-18.6,7.92-21.85,9.83-41,1.86-18.68-3.24-25.34-5.89-44.16-1.96-13.97-1.46-34.55,11.04-61.51h-15.92c-12.5,26.96-13,47.53-11.04,61.51,2.65,18.82,7.75,25.48,5.89,44.16-1.91,19.15-8.4,22.41-9.83,41-1.34,17.48,5.75,19.94,9.46,41.79,5.23,30.78-6.55,39.45-3.94,71.76,1.91,23.67,11.21,25.08,11.62,46.52,.35,18.41-4.62,29.92-9.25,43.37-10.39,30.15-13.46,34.45-7.89,85.16h15.92"/>
</svg>